<svg width="51" height="50" viewBox="0 0 51 50" fill="none" xmlns="http://www.w3.org/2000/svg">
<rect x="0.857422" width="49.2857" height="50" rx="24.6429" fill="#FDFDFD" fill-opacity="0.6"/>
<path d="M23.2738 17.6555C22.9982 17.4962 22.6861 17.413 22.3688 17.4141C22.0514 17.4152 21.7398 17.5005 21.4653 17.6617C21.1908 17.8228 20.9629 18.054 20.8045 18.3322C20.646 18.6104 20.5626 18.9258 20.5625 19.2468V30.7546C20.5626 31.0757 20.646 31.3911 20.8045 31.6693C20.9629 31.9475 21.1908 32.1787 21.4653 32.3398C21.7398 32.5009 22.0514 32.5863 22.3688 32.5874C22.6861 32.5885 22.9982 32.5052 23.2738 32.346L33.2274 26.5911C33.5046 26.4307 33.735 26.1991 33.8952 25.9196C34.0555 25.6402 34.1398 25.3229 34.1398 24.9998C34.1398 24.6768 34.0555 24.3594 33.8952 24.08C33.735 23.8005 33.5046 23.5689 33.2274 23.4085L23.2738 17.6555Z" fill="#1A3E3E"/>
</svg>
