<svg width="84" height="44" viewBox="0 0 84 44" fill="none" xmlns="http://www.w3.org/2000/svg">
<path d="M3.04133 37.5878H4.96697C5.26875 37.5878 5.42203 37.5639 5.56094 37.5066C5.88667 37.3729 6.13576 37.0865 6.13576 36.6854C6.13576 36.2891 5.89626 35.9979 5.56094 35.8595C5.42203 35.8021 5.27354 35.7735 4.96218 35.7735H3.04133V37.5878ZM3.04133 41.5552H1.89648V34.7089H5.10588C5.63759 34.7089 5.98727 34.7996 6.28426 34.9715C6.87827 35.2913 7.26626 35.9072 7.26626 36.6806C7.26626 37.435 6.87827 38.0604 6.27948 38.3851C5.98248 38.5521 5.63759 38.6477 5.10588 38.6477H3.04133V41.5552ZM11.5687 34.7089H12.8477L14.7159 38.218L16.5266 34.7089H17.8055L15.1661 39.6598C14.8404 40.2709 14.6296 40.6338 14.3231 40.9536C13.9686 41.3165 13.5375 41.5695 12.9627 41.5695C12.5555 41.5695 12.1579 41.4406 11.8131 41.2019L12.3974 40.2327C12.5699 40.3569 12.7711 40.4237 12.977 40.4237C13.3794 40.4237 13.6237 40.185 13.9351 39.6264C13.9398 39.6073 14.0931 39.3352 14.0931 39.3352L11.5687 34.7089ZM22.4577 34.7089H23.0756L26.0503 38.2753L29.0202 34.7089H29.6429V41.5552H28.4933V36.8812L26.0503 39.8556L23.6025 36.8812V41.5552H22.4577V34.7089ZM34.5346 34.7041H40.3403V35.7735H38.0075V41.5552H36.8579V35.7735H34.5346V34.7041ZM50.0077 41.5552V36.7761L45.8499 41.5552H45.2272V34.7089H46.3768V39.4832C47.7612 37.8933 49.1455 36.2987 50.5347 34.7089H51.1574V41.5552H50.0077ZM61.7874 39.5214C61.7874 40.3234 61.3852 40.9584 60.7722 41.2926C60.4704 41.4597 60.1112 41.5552 59.5747 41.5552H56.4275V34.7089H61.165V35.7735H57.5723V37.4923H59.5747C60.1112 37.4923 60.4704 37.5878 60.7674 37.7597C61.3852 38.089 61.7874 38.7431 61.7874 39.5214ZM60.6524 39.5214C60.6524 39.0917 60.3937 38.7813 60.0489 38.6334C59.9051 38.576 59.7471 38.5474 59.4405 38.5474H57.5723V40.4953H59.4357C59.7519 40.4953 59.9099 40.4667 60.0489 40.4046C60.3985 40.2614 60.6524 39.9463 60.6524 39.5214ZM66.7416 34.7089H71.4315V35.7687H67.8912V37.2727H70.6362V38.323H67.8912V40.4953H71.4315V41.5552H66.7416V34.7089ZM76.0883 34.7041H81.8941V35.7735H79.5611V41.5552H78.4114V35.7735H76.0883V34.7041Z" fill="white"/>
<mask id="mask0_849_797" style="mask-type:luminance" maskUnits="userSpaceOnUse" x="0" y="0" width="84" height="30">
<path d="M84 0H0V29.3333H84V0Z" fill="white"/>
</mask>
<g mask="url(#mask0_849_797)">
<path d="M0.0941162 17.0584C0.243967 17.0229 15.2152 13.4655 26.4875 8.48241C27.7414 7.92813 28.7567 7.59953 29.6119 7.44468C28.6537 8.40693 23.0172 10.8058 27.5189 11.2309C31.6494 11.6213 24.8452 16.5063 21.7261 18.2823C13.5217 20.8751 8.19687 21.8933 8.10116 21.9114L8.21404 22.5113C8.24199 22.5059 8.71889 22.4148 9.58189 22.2245C14.1046 21.2269 29.2864 17.491 46.7041 8.95351C49.1466 7.75622 51.1402 7.09225 52.818 6.84585C52.3261 9.36106 46.6312 14.923 55.7262 16.3275C64.0215 17.6084 47.3862 20.8606 41.1863 22.5166C40.2921 22.7555 39.6147 22.9612 39.2609 23.1227C36.5236 24.3741 68.3447 23.2485 82.5751 23.1915C83.0392 23.2078 83.5132 23.2171 84 23.2171V22.6067C71.2896 22.6067 66.788 16.8136 63.1705 12.1587C59.4116 7.32136 56.4425 3.49999 46.434 8.40571C44.1083 9.54495 41.7573 10.6319 39.3826 11.6659C37.2841 10.9216 36.0132 9.85105 34.8997 8.91134C32.8265 7.16161 31.3284 5.8972 26.3223 8.11067C15.0849 13.0778 0.149443 16.6272 0 16.6624L0.0941162 17.0584Z" fill="#FDFDFD"/>
</g>
</svg>
